# xmcd CD database file
# Copyright (C) 1997 Ti Kan
# 
# Track frame offsets:
#     183
#     21328
#     37268
#     54633
#     74195
#     94720
#     114545
#     134768
#     152075
#     171015
#     186295
#     202613
#     219643
#     231700
#     248665
#     269468
#     284103
#     302620
# 
# Disc length: 4283 seconds
# 
# Revision: 1
# Processed by: cddbd v1.4b41PL1 Copyright (c) Steve Scherf et al.
# Submitted via: DiscPlay 4.0.4
# 
DISCID=1f10b912
DTITLE=Gladys Knight - The Best of Gladys Knight and The Pips
DYEAR=1900
DGENRE=
TTITLE0=Midnight Train to Georgia
TTITLE1=I've Got To Use My Imagination
TTITLE2=So Sad The Song
TTITLE3=On and On
TTITLE4=Try To Remember/The Way We Were
TTITLE5=I Can See Clearly Now
TTITLE6=Where Peaceful Waters Flow
TTITLE7=Best Thing That Ever Happened To Me
TTITLE8=The Need To Be
TTITLE9=I Feel A Song (In My Heart)
TTITLE10=The Going Ups and the Coming Downs
TTITLE11=Storms of Troubled Times
TTITLE12=Perfect Love
TTITLE13=Once In A Lifetime Thing
TTITLE14=Make Yours A Happy House
TTITLE15=Baby Don't Change Your Mind
TTITLE16=Better Go Your Way
TTITLE17=Sorry Doesn't Always Make It Right
EXTD=
EXTT0=
EXTT1=
EXTT2=
EXTT3=
EXTT4=
EXTT5=
EXTT6=
EXTT7=
EXTT8=
EXTT9=
EXTT10=
EXTT11=
EXTT12=
EXTT13=
EXTT14=
EXTT15=
EXTT16=
EXTT17=
PLAYORDER=
